<svg width="150" height="150" viewBox="0 0 150 150" fill="none" xmlns="http://www.w3.org/2000/svg">
<path d="M113.72 92.1353L105.806 60.8634C105.39 59.2103 103.955 58.0688 102.321 58.0688H64.1006L73.9413 23.225C74.6213 20.824 72.8931 18.4131 70.4848 18.4131H36.9959C35.3999 18.4131 33.9927 19.5152 33.5394 21.1093L4.14927 125.188C3.46929 127.589 5.19757 130 7.60582 130H83.1305C84.1882 130 85.1893 129.518 85.8787 128.681L112.983 95.5301C113.748 94.5953 114.022 93.3259 113.729 92.1353H113.72ZM71.2592 95.5301L44.1829 128.652L63.7228 59.4169L71.9959 92.1353C72.2981 93.3259 72.0242 94.5953 71.2498 95.5301H71.2592Z" fill="#101010"/>
<path d="M128.594 130C138.207 130 146 121.881 146 111.865C146 101.849 138.207 93.7294 128.594 93.7294C118.982 93.7294 111.189 101.849 111.189 111.865C111.189 121.881 118.982 130 128.594 130Z" fill="#101010"/>
</svg>
