<svg width="275" height="275" viewBox="0 0 275 275" fill="none" xmlns="http://www.w3.org/2000/svg">
<rect width="275" height="275" rx="137.5" fill="#C9FA22"/>
<path d="M175.72 154.135L167.806 122.863C167.39 121.21 165.955 120.069 164.321 120.069H126.101L135.941 85.225C136.621 82.824 134.893 80.4131 132.485 80.4131H98.9959C97.3999 80.4131 95.9927 81.5152 95.5394 83.1093L66.1493 187.188C65.4693 189.589 67.1976 192 69.6058 192H145.13C146.188 192 147.189 191.518 147.879 190.681L174.983 157.53C175.748 156.595 176.022 155.326 175.729 154.135H175.72ZM133.259 157.53L106.183 190.652L125.723 121.417L133.996 154.135C134.298 155.326 134.024 156.595 133.25 157.53H133.259Z" fill="#101010"/>
<path d="M190.594 192C200.207 192 208 183.881 208 173.865C208 163.849 200.207 155.729 190.594 155.729C180.982 155.729 173.189 163.849 173.189 173.865C173.189 183.881 180.982 192 190.594 192Z" fill="#101010"/>
</svg>
